<svg aria-hidden="true" style="position: absolute; width: 0; height: 0; overflow: hidden;" version="1.1"
    xmlns="http://www.w3.org/2000/svg" xmlns:xlink="http://www.w3.org/1999/xlink">
    <defs>
        <symbol id="icon-logo" viewBox="0 0 32 32">
            <path
                d="M16 30.173c-0.893 0-1.8-0.2-2.507-0.613l-7.333-4.227c-2.987-2.013-3.173-2.32-3.173-5.48v-7.707c0-3.16 0.173-3.467 3.107-5.453l7.387-4.267c1.4-0.813 3.6-0.813 5 0l7.36 4.24c2.987 2.013 3.173 2.32 3.173 5.48v7.693c0 3.16-0.173 3.467-3.107 5.453l-7.387 4.267c-0.72 0.413-1.627 0.613-2.52 0.613zM16 3.826c-0.56 0-1.107 0.107-1.493 0.333l-7.333 4.24c-2.173 1.467-2.173 1.467-2.173 3.747v7.693c0 2.28 0 2.28 2.227 3.787l7.28 4.2c0.787 0.453 2.213 0.453 3 0l7.333-4.24c2.16-1.467 2.16-1.467 2.16-3.747v-7.693c0-2.28 0-2.28-2.227-3.787l-7.28-4.2c-0.387-0.227-0.933-0.333-1.493-0.333z">
            </path>
            <path
                d="M16 21c-2.76 0-5-2.24-5-5s2.24-5 5-5c2.76 0 5 2.24 5 5s-2.24 5-5 5zM16 13c-1.653 0-3 1.347-3 3s1.347 3 3 3c1.653 0 3-1.347 3-3s-1.347-3-3-3z">
            </path>
        </symbol>
        <symbol id="icon-dashboard" viewBox="0 0 32 32">
            <path
                d="M20 30.267h-8c-7.2 0-10.4-3.067-10.4-10.4v-7.867c0-7.2 3.067-10.4 10.4-10.4h8c7.2 0 10.4 3.067 10.4 10.4v8c0 7.2-3.2 10.267-10.4 10.267zM12 3.6c-6.133 0-8.267 2.267-8.267 8.4v8c0 6.133 2.133 8.267 8.267 8.267h8c6.133 0 8.267-2.133 8.267-8.267v-8c0-6.133-2.133-8.4-8.267-8.4h-8z">
            </path>
            <path
                d="M11.733 24.267c-0.133 0-0.133 0-0.267 0l-1.6-0.267c-0.933 0-1.867-0.8-2-1.867l-0.267-1.6c-0.133-0.667 0.133-1.467 0.667-1.867l3.067-3.067c-0.4-2.133 0.267-4.4 1.733-6 2.533-2.533 6.667-2.533 9.2 0 1.2 1.2 1.867 2.933 1.867 4.667s-0.667 3.333-1.867 4.667c0 0 0 0 0 0-1.6 1.6-3.867 2.267-6 1.733l-2.933 3.067c-0.267 0.4-0.933 0.533-1.6 0.533zM17.733 9.733c-1.2 0-2.267 0.4-3.2 1.333-1.2 1.2-1.6 2.933-1.067 4.533 0.133 0.4 0 0.8-0.267 1.067l-3.467 3.333c0 0-0.133 0.133-0.133 0.267l0.267 1.6c0 0.133 0.133 0.267 0.267 0.267l1.6 0.267c0.133 0 0.267 0 0.267-0.133l3.467-3.467c0.267-0.267 0.667-0.4 1.067-0.267 1.6 0.533 3.333 0.133 4.533-1.067 0.8-0.8 1.333-2 1.333-3.2s-0.533-2.4-1.333-3.2c-0.933-0.933-2.133-1.333-3.333-1.333zM21.733 18.133v0 0z">
            </path>
            <path
                d="M14 22.667c-0.267 0-0.533-0.133-0.667-0.267l-1.2-1.2c-0.4-0.4-0.4-1.067 0-1.467s1.067-0.4 1.467 0l1.2 1.2c0.4 0.4 0.4 1.067 0 1.467-0.4 0.267-0.667 0.267-0.8 0.267z">
            </path>
            <path
                d="M17.867 15.6c-0.8 0-1.333-0.533-1.333-1.333s0.533-1.333 1.333-1.333v0c0.8 0 1.333 0.533 1.333 1.333s-0.533 1.333-1.333 1.333z">
            </path>
        </symbol>
        <symbol id="icon-search" viewBox="0 0 32 32">
            <path stroke-linejoin="round" stroke-linecap="round" stroke-miterlimit="4" stroke-width="2.6667"
                d="M14.667 25.333c5.891 0 10.667-4.776 10.667-10.667s-4.776-10.667-10.667-10.667c-5.891 0-10.667 4.776-10.667 10.667s4.776 10.667 10.667 10.667z">
            </path>
            <path stroke-linejoin="round" stroke-linecap="round" stroke-miterlimit="4" stroke-width="2.6667"
                d="M28 28l-5.8-5.8"></path>
        </symbol>
        <symbol id="icon-chevron-right" viewBox="0 0 32 32">
            <path
                d="M12 26c-0.6 0-1-0.2-1.4-0.6-0.8-0.8-0.8-2 0-2.8l6.6-6.6-6.6-6.6c-0.8-0.8-0.8-2 0-2.8s2-0.8 2.8 0l8 8c0.8 0.8 0.8 2 0 2.8l-8 8c-0.4 0.4-0.8 0.6-1.4 0.6z">
            </path>
        </symbol>
        <symbol id="icon-help" viewBox="0 0 32 32">
            <path
                d="M10.667 29.76c-0.373 0-0.76-0.093-1.107-0.28-0.76-0.4-1.227-1.2-1.227-2.053v-1.893c-4.027-0.413-6.667-3.373-6.667-7.613v-8c0-4.587 3.080-7.667 7.667-7.667h13.333c4.587 0 7.667 3.080 7.667 7.667v8c0 4.587-3.080 7.667-7.667 7.667h-5.027l-5.68 3.787c-0.387 0.253-0.84 0.387-1.293 0.387zM9.333 4.24c-3.44 0-5.667 2.227-5.667 5.667v8c0 3.44 2.227 5.667 5.667 5.667 0.547 0 1 0.453 1 1v2.84c0 0.173 0.107 0.253 0.173 0.293s0.2 0.080 0.347-0.013l5.933-3.947c0.16-0.107 0.36-0.173 0.56-0.173h5.333c3.44 0 5.667-2.227 5.667-5.667v-8c0-3.44-2.227-5.667-5.667-5.667h-13.347z">
            </path>
            <path
                d="M16 16.147c-0.547 0-1-0.453-1-1v-0.28c0-1.547 1.133-2.307 1.56-2.6 0.493-0.333 0.653-0.56 0.653-0.907 0-0.667-0.547-1.213-1.213-1.213s-1.213 0.547-1.213 1.213c0 0.547-0.453 1-1 1s-1-0.453-1-1c0-1.773 1.44-3.213 3.213-3.213s3.213 1.44 3.213 3.213c0 1.52-1.12 2.28-1.533 2.56-0.52 0.347-0.68 0.573-0.68 0.947v0.28c0 0.56-0.453 1-1 1z">
            </path>
            <path d="M16 19.467c-0.56 0-1-0.453-1-1s0.453-1 1-1c0.547 0 1 0.453 1 1s-0.44 1-1 1z"></path>
        </symbol>
        <symbol id="icon-promote" viewBox="0 0 32 32">
            <path
                d="M16 30.4c-0.8 0-1.6-0.267-2.267-0.933l-2-2c-0.133-0.133-0.533-0.267-0.8-0.267h-2.8c-1.733 0-3.2-1.467-3.2-3.2v-2.933c0-0.267-0.133-0.667-0.267-0.8l-2-2c-0.533-0.533-0.933-1.333-0.933-2.267 0-0.8 0.267-1.6 0.933-2.267l2-2c0.133-0.133 0.267-0.533 0.267-0.8v-2.8c0-1.733 1.467-3.2 3.2-3.2h2.933c0.267 0 0.667-0.133 0.8-0.267l2-2c1.2-1.2 3.2-1.2 4.4 0l2 2c0.133 0.133 0.533 0.267 0.8 0.267h2.933c1.733 0 3.2 1.467 3.2 3.2v2.933c0 0.267 0.133 0.667 0.267 0.8l2 2c0.533 0.533 0.933 1.333 0.933 2.267 0 0.8-0.267 1.6-0.933 2.267l-2 2c-0.133 0.133-0.267 0.533-0.267 0.8v2.933c0 1.733-1.467 3.2-3.2 3.2h-2.933c-0.267 0-0.667 0.133-0.8 0.267l-2 2c-0.667 0.4-1.467 0.8-2.267 0.8zM6 18.8c0.533 0.533 0.933 1.467 0.933 2.267v2.933c0 0.667 0.533 1.2 1.2 1.2h2.933c0.8 0 1.733 0.4 2.267 0.933l2 2c0.4 0.4 1.2 0.4 1.6 0l2-2c0.533-0.533 1.467-0.933 2.267-0.933h2.933c0.667 0 1.2-0.533 1.2-1.2v-2.933c0-0.8 0.4-1.733 0.933-2.267l2-2c0.267-0.267 0.267-0.533 0.267-0.8s-0.133-0.533-0.267-0.8l-2-2c-0.533-0.533-0.933-1.467-0.933-2.267v-2.8c0-0.667-0.533-1.2-1.2-1.2h-2.933c-0.8 0-1.733-0.4-2.267-0.933l-2.133-2c-0.4-0.4-1.2-0.4-1.6 0l-2 2c-0.533 0.533-1.467 0.933-2.267 0.933h-2.8c-0.667 0-1.2 0.533-1.2 1.2v2.933c0 0.8-0.4 1.733-0.933 2.267l-2 1.867c-0.267 0.267-0.267 0.533-0.267 0.8s0.133 0.533 0.267 0.8l2 2z">
            </path>
            <path
                d="M20 21.333c-0.8 0-1.333-0.533-1.333-1.333s0.533-1.333 1.333-1.333 1.333 0.533 1.333 1.333-0.533 1.333-1.333 1.333z">
            </path>
            <path
                d="M12 13.333c-0.8 0-1.333-0.533-1.333-1.333s0.533-1.333 1.333-1.333 1.333 0.533 1.333 1.333-0.533 1.333-1.333 1.333z">
            </path>
            <path
                d="M12 20.933c-0.267 0-0.533-0.133-0.667-0.267-0.4-0.4-0.4-1.067 0-1.467l8-8c0.4-0.4 1.067-0.4 1.467 0s0.4 1.067 0 1.467l-8 8c-0.267 0.267-0.533 0.267-0.8 0.267z">
            </path>
        </symbol>
        <symbol id="icon-income" viewBox="0 0 32 32">
            <path
                d="M9.6 30.267c-3.2 0-5.733-2.267-5.733-5.2v-2.667c0-0.533 0.4-1.067 1.067-1.067s1.067 0.4 1.067 1.067c0 1.6 1.6 2.933 3.733 2.933s3.733-1.2 3.733-2.933c0-0.533 0.4-1.067 1.067-1.067s1.067 0.4 1.067 1.067v2.667c-0.267 2.933-2.8 5.2-6 5.2zM6.133 26.533c0.533 1.067 1.867 1.867 3.467 1.867 1.467 0 2.8-0.8 3.467-1.867-0.933 0.533-2.133 0.933-3.467 0.933s-2.533-0.4-3.467-0.933z">
            </path>
            <path
                d="M9.6 23.733c-2.133 0-4.133-0.933-5.067-2.533-0.4-0.667-0.667-1.467-0.667-2.4 0-1.333 0.667-2.667 1.733-3.733 2.133-1.867 5.867-1.867 8 0 1.067 0.933 1.733 2.267 1.733 3.733 0 0.8-0.267 1.6-0.667 2.267-0.933 1.733-2.933 2.667-5.067 2.667zM9.6 15.733c-1.067 0-2 0.4-2.667 0.933s-1.067 1.333-1.067 2.133c0 0.4 0.133 0.933 0.4 1.333 0.667 0.933 1.867 1.6 3.467 1.6 1.467 0 2.8-0.667 3.467-1.6 0.267-0.4 0.4-0.8 0.4-1.333 0-0.8-0.4-1.6-1.067-2.133-0.933-0.667-2-0.933-2.933-0.933z">
            </path>
            <path
                d="M9.6 27.333c-3.2 0-5.733-2.133-5.733-4.933v-3.733c0-2.8 2.533-5.2 5.733-5.2 1.467 0 2.933 0.533 4 1.467s1.733 2.267 1.733 3.733v3.733c0 2.933-2.533 4.933-5.733 4.933zM9.6 15.6c-2.133 0-3.733 1.467-3.733 3.2v3.733c0 1.6 1.6 2.933 3.733 2.933s3.733-1.2 3.733-2.933v-3.733c0-0.8-0.4-1.6-1.067-2.133-0.667-0.667-1.6-1.067-2.667-1.067z">
            </path>
            <path
                d="M25.333 19.733c-2 0-3.733-1.467-3.867-3.467-0.133-1.067 0.267-2.133 1.067-2.933 0.667-0.667 1.6-1.067 2.667-1.067h2.8c1.333 0 2.4 1.067 2.4 2.4v2.667c0 1.333-1.067 2.267-2.267 2.4h-2.8zM28 14.267h-2.8c-0.4 0-0.933 0.133-1.2 0.533-0.4 0.4-0.533 0.933-0.533 1.333 0.133 0.933 0.933 1.6 1.867 1.6h2.667c0.133 0 0.267-0.133 0.267-0.4v-2.667c0-0.267-0.133-0.4-0.267-0.4z">
            </path>
            <path
                d="M21.333 28.267h-3.333c-0.533 0-1.067-0.4-1.067-1.067s0.4-1.067 1.067-1.067h3.333c3.467 0 5.6-2.267 5.6-5.6v-0.933h-1.6c-2 0-3.733-1.467-3.867-3.467-0.133-1.067 0.267-2.133 1.067-2.933 0.667-0.667 1.6-1.067 2.667-1.067h1.733v-0.8c0-3.067-1.867-5.2-4.8-5.6-0.267 0-0.533 0-0.933 0h-11.867c-0.267 0-0.667 0-0.933 0.133-2.933 0.267-4.667 2.4-4.667 5.467v2.667c0 0.533-0.4 1.067-1.067 1.067s-1.067-0.4-1.067-1.067v-2.667c0-4.133 2.533-7.067 6.4-7.6 0.4 0 0.8-0.133 1.2-0.133h12c0.533 0 0.8 0 1.2 0.133 3.867 0.4 6.533 3.467 6.533 7.6v2c0 0.533-0.4 1.067-1.067 1.067h-2.8c-0.4 0-0.933 0.133-1.2 0.533-0.4 0.4-0.533 0.933-0.533 1.333 0.133 0.933 0.933 1.6 1.867 1.6h2.667c0.533 0 1.067 0.4 1.067 1.067v2c0.133 4.267-3.067 7.333-7.6 7.333z">
            </path>
        </symbol>
        <symbol id="icon-customers" viewBox="0 0 32 32">
            <path
                d="M20 30.267h-8c-1.733 0-3.2-0.133-4.533-0.533-0.4-0.133-0.8-0.533-0.667-1.067 0.267-4 4.4-7.067 9.2-7.067s8.8 3.067 9.2 7.067c0 0.533-0.267 0.933-0.667 1.067-1.333 0.4-2.8 0.533-4.533 0.533zM8.933 28.133c0.933 0.133 1.867 0.267 3.067 0.267h8c1.2 0 2.133-0.133 3.067-0.267-0.667-2.533-3.6-4.4-7.067-4.4-3.467-0.133-6.267 1.733-7.067 4.4z">
            </path>
            <path
                d="M7.867 29.867c-0.133 0-0.133 0-0.267 0-4-1.2-5.867-4.267-5.867-9.733v-8.133c0-7.2 3.067-10.4 10.4-10.4h8c7.2 0 10.4 3.067 10.4 10.4v8c0 5.6-1.867 8.667-5.867 9.733-0.267 0.133-0.533 0-0.8-0.133s-0.4-0.4-0.4-0.8c-0.267-2.933-3.467-5.333-7.2-5.333s-6.933 2.267-7.2 5.333c0 0.267-0.133 0.533-0.4 0.8-0.4 0.133-0.667 0.267-0.8 0.267zM16 21.6c4.267 0 8 2.533 8.933 5.867 2.4-1.067 3.333-3.467 3.333-7.467v-8c0-6.133-2.133-8.4-8.267-8.4h-8c-6.133 0-8.267 2.267-8.267 8.4v8c0 4.133 1.067 6.4 3.333 7.467 0.933-3.333 4.667-5.867 8.933-5.867zM16 19.867c-3.2 0-5.733-2.533-5.733-5.733s2.533-5.733 5.733-5.733 5.733 2.533 5.733 5.733c0 3.2-2.533 5.733-5.733 5.733zM16 10.267c-2.133 0-3.733 1.733-3.733 3.733 0 2.133 1.733 3.733 3.733 3.733s3.733-1.733 3.733-3.733c0-2-1.6-3.733-3.733-3.733z">
            </path>
            <path
                d="M16 19.867c-3.2 0-5.733-2.533-5.733-5.733s2.533-5.733 5.733-5.733c3.2 0 5.733 2.533 5.733 5.733s-2.533 5.733-5.733 5.733zM16 10.4c-2.133 0-3.733 1.733-3.733 3.733 0 2.133 1.733 3.733 3.733 3.733s3.733-1.733 3.733-3.733c0-2.133-1.6-3.733-3.733-3.733z">
            </path>
        </symbol>
        <symbol id="icon-product" viewBox="0 0 32 32">
            <path
                d="M20 30.4h-8c-7.2 0-10.4-3.067-10.4-10.4v-8c0-7.2 3.067-10.4 10.4-10.4h8c7.2 0 10.4 3.067 10.4 10.4v8c0 7.2-3.2 10.4-10.4 10.4zM12 3.733c-6.133 0-8.267 2.133-8.267 8.267v8c0 6.133 2.133 8.267 8.267 8.267h8c6.133 0 8.267-2.133 8.267-8.267v-8c0-6.133-2.133-8.267-8.267-8.267h-8z">
            </path>
            <path
                d="M16 17.467c-0.133 0-0.4 0-0.533-0.133l-7.067-4.133c-0.4-0.267-0.667-0.8-0.267-1.333 0.267-0.533 0.933-0.667 1.333-0.4l6.533 3.867 6.533-3.733c0.533-0.267 1.067-0.133 1.333 0.4s0.133 1.067-0.4 1.333l-7.067 4c0 0-0.267 0.133-0.4 0.133z">
            </path>
            <path
                d="M16 24.667c-0.533 0-1.067-0.4-1.067-1.067v-7.2c0-0.533 0.4-1.067 1.067-1.067s1.067 0.4 1.067 1.067v7.2c0 0.667-0.533 1.067-1.067 1.067z">
            </path>
            <path
                d="M16 25.067c-0.8 0-1.467-0.133-2.133-0.533l-4.267-2.4c-1.333-0.667-2.267-2.4-2.267-3.867v-4.533c0-1.467 1.067-3.2 2.267-3.867l4.267-2.4c1.2-0.667 3.067-0.667 4.267 0l4.267 2.4c1.333 0.667 2.267 2.4 2.267 3.867v4.533c0 1.467-1.067 3.2-2.267 3.867l-4.267 2.4c-0.533 0.267-1.333 0.533-2.133 0.533zM16 9.067c-0.4 0-0.933 0.133-1.2 0.267l-4.267 2.267c-0.667 0.4-1.2 1.467-1.2 2.133v4.533c0 0.8 0.533 1.733 1.2 2.133l4.267 2.4c0.667 0.4 1.733 0.4 2.4 0l4.267-2.4c0.667-0.4 1.2-1.333 1.2-2.133v-4.533c0-0.8-0.533-1.733-1.2-2.133l-4.267-2.4c-0.267-0.133-0.8-0.133-1.2-0.133z">
            </path>
        </symbol>
    </defs>
</svg>